<svg width="16" height="18" viewBox="0 0 16 18" fill="none" xmlns="http://www.w3.org/2000/svg">
<path d="M8.00439 0C10.3866 0 12.345 1.87192 12.4444 4.24384H12.4212C12.424 4.31279 12.4108 4.38145 12.3825 4.44444H12.5213C13.6031 4.44444 14.7359 5.19423 15.1901 7.00427L15.2394 7.21784L15.9229 12.7242C16.4147 16.2362 14.4933 17.7131 11.8722 17.7757L11.6964 17.7778H4.32758C1.6638 17.7778 -0.38885 16.8071 0.0624719 12.9632L0.0932485 12.7242L0.784568 7.21784C1.12546 5.26861 2.26988 4.49978 3.37255 4.44735L3.49486 4.44444H3.56434C3.55263 4.37809 3.55263 4.3102 3.56434 4.24384C3.66375 1.87192 5.62222 0 8.00439 0ZM5.41955 7.40381C4.98568 7.40381 4.63396 7.76582 4.63396 8.21239C4.63396 8.65895 4.98568 9.02096 5.41955 9.02096C5.85342 9.02096 6.20514 8.65895 6.20514 8.21239L6.19902 8.11096C6.15055 7.71227 5.82005 7.40381 5.41955 7.40381ZM10.5652 7.40381C10.1313 7.40381 9.77958 7.76582 9.77958 8.21239C9.77958 8.65895 10.1313 9.02096 10.5652 9.02096C10.999 9.02096 11.3508 8.65895 11.3508 8.21239C11.3508 7.76582 10.999 7.40381 10.5652 7.40381ZM7.96956 1.15768C6.25923 1.15768 4.87275 2.5394 4.87275 4.24384C4.88447 4.3102 4.88447 4.37809 4.87275 4.44444H11.1051C11.0803 4.38039 11.0672 4.31247 11.0664 4.24384C11.0664 2.5394 9.67988 1.15768 7.96956 1.15768Z" fill="#71A569"/>
</svg>
