<svg width="19" height="22" viewBox="0 0 19 22" fill="none" xmlns="http://www.w3.org/2000/svg">
<path fill-rule="evenodd" clip-rule="evenodd" d="M7.24629 18.9025C7.75877 19.4733 8.41668 19.787 9.09933 19.787H9.10032C9.78594 19.787 10.4468 19.4733 10.9603 18.9015C11.2353 18.5978 11.7043 18.573 12.008 18.8471C12.3127 19.1211 12.3375 19.5911 12.0634 19.8948C11.264 20.7822 10.2124 21.271 9.10032 21.271H9.09834C7.98929 21.27 6.93959 20.7813 6.14316 19.8938C5.86911 19.5901 5.89385 19.1201 6.19857 18.8471C6.50328 18.572 6.97224 18.5968 7.24629 18.9025ZM9.1486 0C13.5463 0 16.5005 3.42512 16.5005 6.62369C16.5005 8.26897 16.9189 8.96646 17.3632 9.7065C17.8024 10.4366 18.3001 11.2657 18.3001 12.8328C17.9548 16.8367 13.7748 17.1632 9.1486 17.1632C4.52241 17.1632 0.341428 16.8367 8.93893e-05 12.8962C-0.00286544 11.2657 0.494777 10.4366 0.934047 9.7065L1.08912 9.44546C1.47094 8.78923 1.79676 8.07541 1.79676 6.62369C1.79676 3.42512 4.75095 0 9.1486 0ZM9.1486 1.48402C5.69083 1.48402 3.28078 4.19286 3.28078 6.62369C3.28078 8.68054 2.70993 9.63131 2.20536 10.4703C1.80072 11.144 1.48116 11.6763 1.48116 12.8328C1.64638 14.6987 2.87812 15.6792 9.1486 15.6792C15.3845 15.6792 16.6548 14.6552 16.819 12.7685C16.8161 11.6763 16.4965 11.144 16.0919 10.4703C15.5873 9.63131 15.0164 8.68054 15.0164 6.62369C15.0164 4.19286 12.6064 1.48402 9.1486 1.48402Z" fill="black"/>
</svg>
