<svg width="14" height="16" viewBox="0 0 14 16" fill="none" xmlns="http://www.w3.org/2000/svg">
<path d="M13.6156 3.15128H13.6194L7.03396 0.0261345C6.99575 0.00890838 6.95432 0 6.9124 0C6.87049 0 6.82905 0.00890838 6.79084 0.0261345L0.327614 3.10697C0.276561 3.12306 0.229347 3.14944 0.188886 3.18448C0.148425 3.21952 0.115574 3.26248 0.0923612 3.3107L0.0310632 3.48338C0.0110585 3.55357 0.000609969 3.62614 0 3.69912V12.0733C0.000484474 12.1832 0.0317934 12.2907 0.0903673 12.3837C0.148941 12.4766 0.23243 12.5513 0.331341 12.5992L6.43175 15.5355L6.55103 15.5931L6.67529 15.6506C6.78049 15.7024 6.84096 15.7413 7.00041 15.75C7.16319 15.7409 7.21496 15.7285 7.33176 15.6568L7.44731 15.5935L7.56825 15.5355L13.6687 12.5996C13.7676 12.5517 13.8511 12.4771 13.9097 12.3841C13.9683 12.2911 13.9996 12.1836 14 12.0737V3.69747C13.9995 3.57805 13.9624 3.46167 13.8936 3.36401C13.8249 3.26635 13.7279 3.1921 13.6156 3.15128ZM6.90971 0.601721L12.6556 3.41257L10.306 4.54387L4.68309 1.69492L6.90971 0.601721ZM6.6873 15.0092C6.6873 15.0097 6.68719 15.0103 6.68698 15.0108C6.68677 15.0113 6.68647 15.0117 6.68608 15.0121C6.6857 15.0125 6.68524 15.0128 6.68474 15.013C6.68424 15.0132 6.6837 15.0133 6.68315 15.0133L0.582747 12.0774C0.582019 12.0771 0.581397 12.0766 0.580956 12.0759C0.580516 12.0753 0.580274 12.0745 0.580261 12.0737V3.8279L6.68895 6.71246L6.6873 15.0092ZM6.99627 6.14102C6.97708 6.12866 6.95716 6.11746 6.93663 6.10748L1.25868 3.37448L4.02994 2.0146L9.64659 4.86023L7.05591 6.10706C7.03594 6.11724 7.01658 6.12858 6.99793 6.14102H6.99627ZM13.416 12.0729C13.416 12.0737 13.4158 12.0744 13.4153 12.0751C13.4149 12.0758 13.4143 12.0763 13.4135 12.0766L7.31312 15.0125C7.31257 15.0125 7.31203 15.0124 7.31153 15.0122C7.31103 15.012 7.31057 15.0117 7.31019 15.0113C7.3098 15.0109 7.3095 15.0105 7.30929 15.0099C7.30908 15.0094 7.30898 15.0089 7.30898 15.0084V6.69259L10.2529 5.2735V8.02803C10.2529 8.10491 10.2835 8.17863 10.3379 8.233C10.3922 8.28735 10.466 8.31789 10.5429 8.31789C10.6198 8.31789 10.6935 8.28735 10.7479 8.233C10.8022 8.17863 10.8328 8.10491 10.8328 8.02803V5.08798C10.8327 5.05833 10.8281 5.02886 10.8191 5.00061L13.4173 3.74798L13.416 12.0729Z" fill="#746F6F"/>
</svg>
