<svg width="14" height="17" viewBox="0 0 14 17" fill="none" xmlns="http://www.w3.org/2000/svg">
<path d="M9.05361 0.92914L9.02435 0.9H8.98305H1.47458C1.16745 0.9 0.9 1.14585 0.9 1.47458V16.2712C0.9 16.5783 1.14585 16.8458 1.47458 16.8458H12.5254C12.8325 16.8458 13.1 16.5999 13.1 16.2712V5V4.95845L13.0706 4.92914L9.05361 0.92914ZM11.092 8.36061L11.0801 8.35763H11.0678H3C2.93758 8.35763 2.8759 8.37675 2.82971 8.42293C2.78353 8.46912 2.76441 8.5308 2.76441 8.59322C2.76441 8.74121 2.88534 8.82881 3 8.82881H11.0678C11.2158 8.82881 11.3034 8.70788 11.3034 8.59322C11.3034 8.5236 11.2682 8.46897 11.2286 8.43264C11.1893 8.39659 11.1398 8.37255 11.092 8.36061ZM11.092 11.2589L11.0801 11.2559H11.0678H3C2.93758 11.2559 2.8759 11.2751 2.82971 11.3212C2.78353 11.3674 2.76441 11.4291 2.76441 11.4915C2.76441 11.6395 2.88534 11.7271 3 11.7271H11.0678C11.2158 11.7271 11.3034 11.6062 11.3034 11.4915C11.3034 11.4219 11.2682 11.3673 11.2286 11.3309C11.1893 11.2949 11.1398 11.2709 11.092 11.2589ZM11.092 14.1572L11.0801 14.1542H11.0678H3C2.93758 14.1542 2.8759 14.1734 2.82971 14.2195C2.78353 14.2657 2.76441 14.3274 2.76441 14.3898C2.76441 14.5378 2.88534 14.6254 3 14.6254H11.0678C11.2158 14.6254 11.3034 14.5045 11.3034 14.3898C11.3034 14.3202 11.2682 14.2656 11.2286 14.2292C11.1893 14.1932 11.1398 14.1692 11.092 14.1572ZM9.1678 1.66515L12.301 4.79831H9.27119C9.21308 4.79831 9.1678 4.74684 9.1678 4.69492V1.66515ZM12.5254 16.3746H1.47458C1.41647 16.3746 1.37119 16.3231 1.37119 16.2712V1.45763C1.37119 1.39952 1.42265 1.35424 1.47458 1.35424H8.71356V4.69492C8.71356 5.00204 8.95941 5.26949 9.28814 5.26949H12.6458V16.2712C12.6458 16.3244 12.5996 16.3746 12.5254 16.3746ZM11.0678 7.38814C11.2158 7.38814 11.3034 7.2672 11.3034 7.15254C11.3034 7.00455 11.1825 6.91695 11.0678 6.91695H3C2.93758 6.91695 2.8759 6.93607 2.82971 6.98226C2.78353 7.02844 2.76441 7.09012 2.76441 7.15254C2.76441 7.30053 2.88534 7.38814 3 7.38814H11.0678ZM11.0678 10.2864C11.2158 10.2864 11.3034 10.1655 11.3034 10.0508C11.3034 9.90286 11.1825 9.81525 11.0678 9.81525H3C2.93758 9.81525 2.8759 9.83437 2.82971 9.88056C2.78353 9.92675 2.76441 9.98842 2.76441 10.0508C2.76441 10.1988 2.88534 10.2864 3 10.2864H11.0678ZM11.0678 13.1847C11.2158 13.1847 11.3034 13.0638 11.3034 12.9492C11.3034 12.8827 11.2712 12.8247 11.2317 12.7852C11.1923 12.7458 11.1342 12.7136 11.0678 12.7136H3C2.93758 12.7136 2.8759 12.7327 2.82971 12.7789C2.78353 12.8251 2.76441 12.8867 2.76441 12.9492C2.76441 13.0971 2.88534 13.1847 3 13.1847H11.0678Z" fill="#746F6F" stroke="#746F6F" stroke-width="0.2"/>
</svg>
