<svg width="21" height="19" viewBox="0 0 21 19" fill="none" xmlns="http://www.w3.org/2000/svg">
<path d="M17.9199 11.0333H17.6911V8.20542C17.6911 4.20252 14.4783 0.95 10.5214 0.95C6.56458 0.95 3.35181 4.20683 3.35181 8.20542V11.0333H3.12302C1.93819 11.0333 0.95 11.9899 0.95 13.1849V16.5603C0.95 17.7592 1.93786 18.7247 3.12302 18.7247H5.40045C5.70815 18.7247 5.98228 18.4822 5.98228 18.1643V11.5808C5.98228 11.2659 5.70671 11.0333 5.40045 11.0333H4.48115V8.20542C4.48115 4.82695 7.19148 2.07935 10.5214 2.07935C13.8514 2.07935 16.5617 4.82695 16.5617 8.20542V11.0333H15.6424C15.3362 11.0333 15.0606 11.2659 15.0606 11.5808V18.1643C15.0606 18.4776 15.3345 18.7247 15.6424 18.7247H17.9199C19.1064 18.7247 20.05 17.7579 20.05 16.5603V13.1849C20.05 11.9912 19.106 11.0333 17.9199 11.0333Z" fill="black" stroke="black" stroke-width="0.1"/>
</svg>
