<svg width="18" height="17" viewBox="0 0 18 17" fill="none" xmlns="http://www.w3.org/2000/svg">
<path fill-rule="evenodd" clip-rule="evenodd" d="M8.99874 0.905846C10.4283 0.00969221 12.3275 -0.237883 13.9681 0.28342C17.5368 1.42453 18.6446 5.28201 17.6538 8.35142C16.1248 13.1722 9.59485 16.7681 9.3179 16.9189C9.21943 16.973 9.1104 17 9.00138 17C8.89236 17 8.78421 16.9738 8.68574 16.9207C8.41055 16.7716 1.92808 13.2288 0.348132 8.35229C0.347252 8.35229 0.347252 8.35142 0.347252 8.35142C-0.644504 5.28113 0.459792 1.42279 4.02502 0.28342C5.69904 -0.253575 7.52342 -0.0173319 8.99874 0.905846ZM4.42945 1.52827C1.54475 2.45058 0.820271 5.52697 1.60365 7.95303C2.83631 11.7556 7.7063 14.8302 9.0005 15.5913C10.2991 14.8224 15.2043 11.7137 16.3974 7.95652C17.1807 5.52784 16.4536 2.45145 13.5645 1.52827C12.1648 1.08281 10.5321 1.35392 9.40494 2.21869C9.16931 2.39827 8.84224 2.40176 8.60485 2.22392C7.41088 1.33387 5.85115 1.07322 4.42945 1.52827ZM12.7205 3.25947C13.9188 3.64391 14.7585 4.69611 14.8614 5.94009C14.8904 6.30012 14.6205 6.61569 14.2573 6.64446C14.2389 6.6462 14.2213 6.64707 14.2028 6.64707C13.8626 6.64707 13.5742 6.38816 13.5461 6.04644C13.488 5.32986 13.0045 4.72487 12.316 4.50432C11.9687 4.39274 11.7788 4.02399 11.8905 3.68139C12.0039 3.33793 12.3723 3.15137 12.7205 3.25947Z" fill="white"/>
</svg>
