<svg width="17" height="17" viewBox="0 0 17 17" fill="none" xmlns="http://www.w3.org/2000/svg">
<path d="M5.33796 0.000131464C5.87345 0.016417 6.39195 0.109916 6.89429 0.280764H6.94444C6.97844 0.296914 7.00394 0.314764 7.02094 0.330914C7.20879 0.391263 7.38644 0.459262 7.55643 0.552761L7.87943 0.69726C8.00693 0.765259 8.15993 0.891908 8.24493 0.943757C8.32993 0.993906 8.42343 1.04576 8.49992 1.10441C9.44426 0.382763 10.5909 -0.00823272 11.7724 0.000131464C12.3087 0.000131464 12.8442 0.0759164 13.3534 0.246765C16.4907 1.26675 17.6212 4.70922 16.6768 7.71818C16.1413 9.25582 15.2659 10.6592 14.1192 11.8058C12.4779 13.3953 10.6768 14.8063 8.73792 16.0217L8.52542 16.1501L8.30443 16.0132C6.3588 14.8063 4.54747 13.3953 2.89083 11.7973C1.75185 10.6507 0.875505 9.25582 0.331511 7.71818C-0.628979 4.70922 0.501509 1.26675 3.67283 0.228915C3.91932 0.143916 4.17347 0.0844163 4.42847 0.0512666H4.53047C4.76931 0.016417 5.00646 0.000131464 5.24446 0.000131464H5.33796ZM12.9114 2.68624C12.5629 2.56639 12.1804 2.75424 12.0529 3.11123C11.9339 3.46823 12.1209 3.85923 12.4779 3.98587C13.0227 4.18987 13.3874 4.72622 13.3874 5.32036V5.34671C13.3712 5.54136 13.4299 5.72921 13.5489 5.8737C13.6679 6.0182 13.8464 6.10235 14.0334 6.1202C14.3819 6.11085 14.6794 5.8312 14.7049 5.47336V5.37221C14.7304 4.18137 14.0087 3.10273 12.9114 2.68624Z" fill="#F36A6A"/>
</svg>
