<svg width="18" height="19" viewBox="0 0 18 19" fill="none" xmlns="http://www.w3.org/2000/svg">
<path fill-rule="evenodd" clip-rule="evenodd" d="M10.2881 12.5484C11.3453 12.5484 12.2058 13.4028 12.2058 14.4529V17.1538C12.2058 17.3794 12.3866 17.5603 12.6184 17.5656H14.292C15.6108 17.5656 16.6829 16.5067 16.6829 15.2054V7.54529C16.6768 7.09749 16.4634 6.67603 16.0973 6.39593L10.3083 1.77915C9.53122 1.16363 8.44419 1.16363 7.66449 1.7809L1.91502 6.39417C1.53483 6.68305 1.32146 7.10451 1.31707 7.56022V15.2054C1.31707 16.5067 2.38917 17.5656 3.708 17.5656H5.39737C5.63532 17.5656 5.82849 17.3768 5.82849 17.145C5.82849 17.0941 5.83463 17.0431 5.84517 16.9949V14.4529C5.84517 13.4089 6.70039 12.5554 7.74966 12.5484H10.2881ZM14.292 18.8827H12.6026C11.635 18.8598 10.8887 18.1003 10.8887 17.1538V14.4529C10.8887 14.1289 10.6191 13.8655 10.2881 13.8655H7.75405C7.43005 13.8672 7.16224 14.1315 7.16224 14.4529V17.145C7.16224 17.2109 7.15346 17.2741 7.13502 17.3338C7.0402 18.2031 6.29737 18.8827 5.39737 18.8827H3.708C1.66302 18.8827 0 17.2328 0 15.2054V7.55407C0.00878049 6.68129 0.410927 5.88227 1.10546 5.35632L6.84351 0.750951C8.10702 -0.250024 9.86751 -0.250024 11.1284 0.749195L16.9077 5.35895C17.5864 5.87612 17.9886 6.67339 18 7.53564V15.2054C18 17.2328 16.337 18.8827 14.292 18.8827Z" fill="white"/>
</svg>
