<svg width="16" height="16" viewBox="0 0 16 16" fill="none" xmlns="http://www.w3.org/2000/svg">
<path d="M8 0.95C4.10839 0.95 0.95 4.10839 0.95 8C0.95 11.8916 4.10839 15.05 8 15.05C11.8916 15.05 15.05 11.8916 15.05 8C15.05 4.10839 11.8916 0.95 8 0.95ZM8 14.432C4.45761 14.432 1.568 11.5424 1.568 8C1.568 4.45761 4.45761 1.568 8 1.568C11.5424 1.568 14.432 4.45761 14.432 8C14.432 11.5424 11.5424 14.432 8 14.432Z" fill="#746F6F" stroke="#746F6F" stroke-width="0.1"/>
<path d="M7.99992 6.56441C7.83403 6.56441 7.68392 6.69709 7.68392 6.88041V11.2904C7.68392 11.4563 7.8166 11.6064 7.99992 11.6064C8.18153 11.6064 8.31592 11.472 8.31592 11.2904V6.88041C8.31592 6.71279 8.16753 6.56441 7.99992 6.56441Z" fill="#746F6F" stroke="#746F6F" stroke-width="0.1"/>
<path d="M7.99999 5.75414C8.27502 5.75414 8.49799 5.53118 8.49799 5.25614C8.49799 4.98111 8.27502 4.75814 7.99999 4.75814C7.72495 4.75814 7.50199 4.98111 7.50199 5.25614C7.50199 5.53118 7.72495 5.75414 7.99999 5.75414Z" fill="#746F6F" stroke="#746F6F" stroke-width="0.1"/>
</svg>
