<svg width="13" height="17" viewBox="0 0 13 17" fill="none" xmlns="http://www.w3.org/2000/svg">
<path d="M10.8333 6.97436V4.35897C10.8333 1.95531 8.88952 0 6.5 0C4.11048 0 2.16667 1.95531 2.16667 4.35897V6.97436C0.972317 6.97436 0 7.95243 0 9.15385V14.8205C0 16.0219 0.972317 17 2.16667 17H10.8333C12.0277 17 13 16.0219 13 14.8205V9.15385C13 7.9516 12.0277 6.97436 10.8333 6.97436ZM3.03333 4.35814C3.03333 2.43521 4.58838 0.870965 6.5 0.870965C8.41162 0.870965 9.96667 2.43521 9.96667 4.35814V6.97353H3.03333V4.35814ZM12.1333 14.8197C12.1333 15.5412 11.5506 16.1274 10.8333 16.1274H2.16667C1.4494 16.1274 0.866667 15.5412 0.866667 14.8197V9.15302C0.866667 8.4315 1.4494 7.84532 2.16667 7.84532H10.8333C11.5506 7.84532 12.1333 8.4315 12.1333 9.15302V14.8197Z" fill="#746F6F"/>
</svg>
