<svg width="17" height="22" viewBox="0 0 17 22" fill="none" xmlns="http://www.w3.org/2000/svg">
<path fill-rule="evenodd" clip-rule="evenodd" d="M17 17.3177C17 20.8425 12.149 21.25 8.50107 21.25L8.24002 21.2498C5.91588 21.2442 0 21.0979 0 17.2963C0 13.8434 4.65606 13.382 8.27621 13.3646L8.76211 13.3643C11.0861 13.3699 17 13.5161 17 17.3177ZM8.50107 14.9682C3.92803 14.9682 1.60985 15.751 1.60985 17.2963C1.60985 18.8555 3.92803 19.6459 8.50107 19.6459C13.073 19.6459 15.3902 18.863 15.3902 17.3177C15.3902 15.7585 13.073 14.9682 8.50107 14.9682ZM8.50107 0C11.6435 0 14.1989 2.54738 14.1989 5.67867C14.1989 8.80996 11.6435 11.3563 8.50107 11.3563H8.46673C5.33074 11.3467 2.7904 8.7982 2.8011 5.67547C2.8011 2.54738 5.35758 0 8.50107 0ZM8.50107 1.52715C6.20328 1.52715 4.33369 3.38902 4.33369 5.67867C4.3262 7.96084 6.18182 9.82165 8.46995 9.8302L8.50107 10.5938V9.8302C10.7978 9.8302 12.6663 7.96725 12.6663 5.67867C12.6663 3.38902 10.7978 1.52715 8.50107 1.52715Z" fill="white"/>
</svg>
