<svg width="16" height="17" viewBox="0 0 16 17" fill="none" xmlns="http://www.w3.org/2000/svg">
<path d="M2.36486 11.7987L2.36487 11.7988C2.37695 11.7982 2.38906 11.7982 2.40115 11.7987H6.24972H6.24999V11.8487L2.36486 11.7987ZM2.36486 11.7987L2.36252 11.7989L2.36486 11.7987ZM13.2991 1.08618C13.3651 1.01104 13.4568 0.96332 13.5562 0.952404C13.6128 0.946173 13.6701 0.952087 13.7242 0.969761C13.7783 0.987433 13.8281 1.01645 13.8701 1.05488C13.9121 1.09331 13.9454 1.14026 13.9678 1.1926C13.9901 1.24477 14.0011 1.30108 13.9999 1.3578M13.2991 1.08618L13.9499 5.20414C13.9499 5.29689 13.913 5.38584 13.8474 5.45142C13.7818 5.517 13.6928 5.55385 13.5999 5.55385H9.74996M13.2991 1.08618C13.2333 1.16118 13.1979 1.25806 13.1999 1.3578V4.0654C11.9093 2.69313 10.0556 1.83185 7.99998 1.83185C4.11693 1.83185 0.950232 4.90497 0.950035 8.70094L13.2991 1.08618ZM13.9999 1.3578C13.9999 1.35799 13.9999 1.35817 13.9999 1.35835L13.9499 1.35727H13.9999V1.3578ZM13.9999 1.3578V5.20415C13.9999 5.31017 13.9578 5.41184 13.8827 5.48679C13.8077 5.56175 13.706 5.60384 13.5999 5.60386H9.75028M9.75028 5.60386C9.75041 5.60385 9.75054 5.60385 9.75067 5.60385L9.74996 5.55385M9.75028 5.60386H9.74996V5.55385M9.75028 5.60386C9.69742 5.60455 9.64493 5.59477 9.59587 5.57507C9.54669 5.55532 9.50192 5.526 9.46417 5.48881C9.42642 5.45163 9.39644 5.40731 9.37598 5.35844C9.35552 5.30957 9.34498 5.25712 9.34498 5.20414C9.34498 5.15117 9.35552 5.09872 9.37598 5.04984C9.39644 5.00097 9.42642 4.95666 9.46417 4.91947C9.50192 4.88228 9.54669 4.85297 9.59587 4.83322C9.64494 4.81352 9.69743 4.80373 9.7503 4.80443M9.74996 5.55385L12.8347 4.85443C12.8205 4.83769 12.8063 4.82102 12.7919 4.80443M9.7503 4.80443C9.75042 4.80443 9.75055 4.80444 9.75067 4.80444L9.74996 4.85443V4.80443H9.7503ZM9.7503 4.80443H12.7919M12.7919 4.80443H12.8578L1.00003 8.70129C0.999379 8.74763 1.00795 8.79365 1.02524 8.83665C1.04254 8.87966 1.06821 8.91879 1.10078 8.9518C1.13334 8.9848 1.17215 9.01101 1.21494 9.02889C1.25773 9.04678 1.30365 9.05599 1.35003 9.05599C1.39642 9.05599 1.44234 9.04678 1.48513 9.02889C1.52792 9.01101 1.56672 8.9848 1.59929 8.9518C1.63185 8.91879 1.65753 8.87966 1.67482 8.83665C1.69212 8.79365 1.70068 8.74763 1.70003 8.70129H1.75003C1.75003 8.70118 1.75003 8.70106 1.75003 8.70095C1.75022 5.35099 4.5379 2.63128 7.99998 2.63128C9.92737 2.63128 11.6466 3.47811 12.7919 4.80443ZM14.3491 8.43019C14.4151 8.35504 14.5068 8.30732 14.6062 8.2964C14.6628 8.29017 14.7201 8.29608 14.7742 8.31376C14.8283 8.33143 14.8781 8.36046 14.9201 8.39889C14.9621 8.43732 14.9954 8.48428 15.0178 8.53662C15.0401 8.58879 15.0511 8.6451 15.0499 8.70183M14.3491 8.43019L14.9999 8.70129M14.3491 8.43019C14.2833 8.50519 14.2479 8.60208 14.2499 8.70182M14.3491 8.43019L14.2499 8.70182M15.0499 8.70183C15.0499 8.70201 15.0499 8.70219 15.0499 8.70237L14.9999 8.70129M15.0499 8.70183C15.0499 8.70165 15.0499 8.70147 15.0499 8.70129H14.9999M15.0499 8.70183C15.0496 12.4977 11.883 15.5707 7.99998 15.5707C5.94438 15.5707 4.09065 14.7104 2.80002 13.3373M14.9999 8.70129C14.9999 12.4685 11.8568 15.5207 7.99998 15.5207C5.93913 15.5207 4.08287 14.6501 2.80002 13.2639V13.3373M2.80002 13.3373V16.045L2.75002 13.2835C2.76659 13.3015 2.78326 13.3194 2.80002 13.3373ZM14.2499 8.70182C14.2496 12.0517 11.462 14.7713 7.99998 14.7713C6.07255 14.7713 4.35336 13.9251 3.20798 12.5982M14.2499 8.70182L3.20798 12.5982M3.20798 12.5982H6.24972M2.00003 16.0453H2.05003V12.1984H2.00003V12.1985V16.045V16.0453Z" fill="#746F6F" stroke="#746F6F" stroke-width="0.1"/>
</svg>
